# xmcd CD database generated by RipIT
#
# Track frame offsets:
# 150
# 36160
# 49967
# 58311
# 70039
# 84053
# 98014
# 112528
# 124552
# 137823
# 148001
# 161058
# 173003
# 187869
# 201402
# 215044
#
# Disc length: 3053 seconds
#
# Revision: 2
# Processed by: cddbd v1.5.2PL0 Copyright (c) Steve Scherf et al.
# Submitted via: RipIT 3.6.0 www.suwald.com/ripit/ripit.html on 2009-03-09 at 20:41
#
DISCID=de0beb10
DTITLE=Various Artist - Ultimate Piano Works CD 08
DYEAR=1900
DGENRE=Jazz
TTITLE0=Dave Brubeck - Blue Moon
TTITLE1=Thelonius Monk - Evance
TTITLE2=Oscar Peterson - Flying Home
TTITLE3=Art Tatum - It Had To Be You
TTITLE4=Horace Silver - Buhaina
TTITLE5=Jimmy Yancey - South Side Stuff
TTITLE6=Art Tatum - Last Goodbye Blues
TTITLE7=Joe Sullivan - Keepin' Out Of Mischief Now
TTITLE8=Erroll Garner - I Only Have Eyes For You
TTITLE9=Nat King Cole Trio - Pogo Stick Bounce
TTITLE10=Joe Sullivan - Memories Of You
TTITLE11=Billy Kyle - Finishing Up A Date
TTITLE12=George Shearing - I Didn't Know What Time It Was
TTITLE13=Earl Hines - Caution Blues
TTITLE14=Erroll Garner - Blue And Sentimental
TTITLE15=Bud Powell - April In Paris
EXTD=
EXTT0=
EXTT1=
EXTT2=
EXTT3=
EXTT4=
EXTT5=
EXTT6=
EXTT7=
EXTT8=
EXTT9=
EXTT10=
EXTT11=
EXTT12=
EXTT13=
EXTT14=
EXTT15=
PLAYORDER=
